<svg width="622" height="72" viewBox="0 0 622 72" fill="none" xmlns="http://www.w3.org/2000/svg">
<path d="M248.034 71.8638L209 4.65137H222.109L253.285 58.7032L284.553 4.65137H297.571L258.518 71.8638H248.034Z" fill="#2630ED"/>
<path d="M299.976 71.7173C297.662 71.7173 295.551 71.1499 293.66 69.9968C291.75 68.8436 290.245 67.3244 289.125 65.4207C288.005 63.5171 287.436 61.4488 287.436 59.2157V39.0446H331.445V30.4417C331.445 29.9475 331.28 29.5265 330.931 29.1787C330.582 28.831 330.16 28.6662 329.664 28.6662L290.63 28.5015L296.689 17.5557H330.05C332.363 17.5557 334.475 18.1231 336.366 19.2396C338.275 20.3562 339.781 21.8754 340.901 23.7607C342.021 25.6644 342.59 27.7693 342.59 30.0573V71.699H299.976V71.7173ZM300.343 60.6068H331.427V49.2217H298.562V58.8313C298.562 59.3255 298.727 59.7465 299.076 60.0943C299.425 60.4237 299.847 60.6068 300.343 60.6068Z" fill="#2630ED"/>
<path d="M578.833 71.7173C576.52 71.7173 574.408 71.1499 572.517 69.9968C570.608 68.8436 569.102 67.3244 567.982 65.4207C566.862 63.5171 566.293 61.4488 566.293 59.2157V39.0446H610.303V30.4417C610.303 29.9475 610.138 29.5265 609.789 29.1787C609.44 28.831 609.018 28.6662 608.522 28.6662L569.488 28.5015L575.547 17.5557H608.889C611.202 17.5557 613.314 18.1231 615.205 19.2396C617.115 20.3562 618.62 21.8754 619.74 23.7607C620.86 25.6644 621.429 27.7693 621.429 30.0573V71.699H578.833V71.7173ZM579.2 60.6068H610.284V49.2217H577.419V58.8313C577.419 59.3255 577.585 59.7465 577.933 60.0943C578.282 60.4237 578.705 60.6068 579.2 60.6068Z" fill="#2630ED"/>
<path d="M480 69.9787C478.09 68.8255 476.566 67.3063 475.409 65.4027C474.253 63.4991 473.684 61.4307 473.684 59.1976V30.0759C473.684 27.8428 474.253 25.7744 475.409 23.8708C476.566 21.9672 478.09 20.4479 480 19.2948C481.909 18.1416 483.984 17.5742 486.224 17.5742H516.28C518.593 17.5742 520.705 18.1416 522.596 19.2582C524.505 20.3747 526.011 21.894 527.131 23.7793C528.251 25.6829 528.82 27.7879 528.82 30.0759V50.2469H484.81V58.8315C484.81 59.3257 484.975 59.7467 485.324 60.0945C485.673 60.4423 486.095 60.607 486.591 60.607H528.82V71.7176H486.224C483.984 71.7176 481.909 71.1318 480 69.9787ZM484.828 40.0699H517.693V30.442C517.693 29.9478 517.528 29.5268 517.179 29.179C516.831 28.8312 516.408 28.6665 515.913 28.6665H486.609C486.114 28.6665 485.691 28.8312 485.342 29.179C484.994 29.5268 484.828 29.9478 484.828 30.442V40.0699Z" fill="#2630ED"/>
<path d="M465.623 23.8708C464.503 21.9672 462.979 20.4479 461.088 19.2948C459.178 18.1416 457.067 17.5742 454.772 17.5742H392.512L386.416 28.0624V71.7176H397.653V30.442C397.653 29.9478 397.818 29.5268 398.167 29.179C398.516 28.8312 398.901 28.6665 399.342 28.6665H419.575C420.016 28.6665 420.401 28.8312 420.75 29.179C421.099 29.5268 421.264 29.9478 421.264 30.442V71.6993H432.592V30.442C432.592 29.9478 432.758 29.5268 433.106 29.179C433.455 28.8312 433.841 28.6665 434.282 28.6665H454.423C454.919 28.6665 455.341 28.8312 455.69 29.179C456.039 29.5268 456.204 29.9478 456.204 30.442V71.6993H467.349V30.0759C467.312 27.8428 466.743 25.7744 465.623 23.8708Z" fill="#2630ED"/>
<path d="M360.73 17.574C358.49 17.574 356.415 18.1414 354.505 19.2945C352.596 20.4477 351.072 21.9669 349.915 23.8706C348.759 25.7742 348.189 27.8425 348.189 30.0756V71.7173H359.334V30.4417C359.334 29.9475 359.499 29.5265 359.848 29.1787C360.197 28.831 360.619 28.6662 361.115 28.6662H380.137L386.563 17.5557H360.73V17.574Z" fill="#2630ED"/>
<path d="M568.956 17.3909H547.346V2.93066H536.201V59.0326C536.201 61.2657 536.77 63.334 537.89 65.2376C539.01 67.1413 540.534 68.6605 542.425 69.8137C544.335 70.9668 546.446 71.5342 548.741 71.5342L565.064 71.1498V60.0393L549.127 60.4237C548.631 60.4237 548.209 60.2589 547.86 59.9112C547.511 59.5634 547.346 59.1424 547.346 58.6482V28.5014H562.567L568.938 17.4824V17.3909H568.956Z" fill="#2630ED"/>
<path d="M111.714 68.7538L95.8895 41.0862C95.0697 39.6379 92.9829 39.6379 92.1632 41.0862L76.2891 68.7538C75.4693 70.2021 76.4878 72 78.1522 72H109.876C111.49 72 112.534 70.2021 111.714 68.7538Z" fill="#2630ED"/>
<path d="M109.291 0.0487816L109.316 0H104.792C104.03 0 103.317 0.414635 102.949 1.04878L95.8192 13.3171C95.0079 14.7317 92.9429 14.7317 92.1316 13.3171L85.0269 1.04878C84.6581 0.390245 83.9452 0 83.1831 0L2.12988 0.0487816C0.482756 0.0487816 -0.525185 1.80488 0.286085 3.21951L39.5958 70.9512C39.9645 71.6098 40.6775 72 41.4396 72H66.2939C67.056 72 67.769 71.5854 68.1377 70.9512L92.1316 29.6341C92.9429 28.2195 95.0079 28.2195 95.8192 29.6341L119.813 70.9512C120.182 71.6098 120.895 72 121.657 72H146.511C147.273 72 147.986 71.5854 148.355 70.9512L187.714 3.17073C188.525 1.7561 187.517 0 185.87 0L109.291 0.0487816Z" fill="#2630ED"/>
</svg>
