<?xml version="1.0" standalone="no"?>
<!DOCTYPE svg PUBLIC "-//W3C//DTD SVG 20010904//EN"
 "http://www.w3.org/TR/2001/REC-SVG-20010904/DTD/svg10.dtd">
<svg version="1.0" xmlns="http://www.w3.org/2000/svg"
 width="700.000000pt" height="700.000000pt" viewBox="0 0 700.000000 700.000000"
 preserveAspectRatio="xMidYMid meet">
<metadata>
Created by potrace 1.14, written by Peter Selinger 2001-2017
</metadata>
<g transform="translate(0.000000,700.000000) scale(0.100000,-0.100000)"
fill="#000000" stroke="none">
<path d="M3278 6996 c-1 -2 -42 -6 -89 -10 -47 -4 -95 -8 -105 -10 -10 -2 -45
-7 -78 -11 -101 -12 -215 -35 -380 -76 -296 -75 -599 -199 -881 -362 -103 -60
-265 -165 -315 -204 -8 -6 -51 -40 -95 -74 -426 -331 -813 -825 -1020 -1299
-25 -58 -50 -114 -55 -125 -45 -93 -150 -427 -176 -560 -2 -11 -10 -54 -19
-95 -29 -147 -35 -194 -52 -370 -15 -163 -8 -592 12 -711 2 -13 6 -46 9 -74 9
-78 22 -152 51 -285 21 -96 91 -339 114 -395 5 -11 25 -65 46 -120 63 -166
249 -531 312 -610 4 -6 34 -49 65 -95 171 -256 432 -534 708 -755 92 -74 370
-265 386 -265 4 0 15 -6 23 -14 48 -41 400 -206 578 -271 214 -77 472 -141
692 -171 25 -3 57 -8 71 -10 163 -25 682 -25 842 1 13 2 46 7 73 10 72 10 86
12 120 19 17 3 44 8 60 11 123 23 320 76 455 122 145 49 420 165 420 177 0 3
-198 282 -440 621 -243 339 -456 637 -474 663 -18 26 -199 279 -401 562 -203
283 -383 535 -400 560 -18 25 -218 306 -446 625 -444 621 -467 653 -516 723
-18 26 -34 42 -35 37 0 -6 -2 -626 -3 -1380 l-1 -1370 -234 0 -234 0 1 1770
c0 1746 1 1771 20 1815 40 89 117 140 213 140 53 0 113 -21 151 -52 18 -14
123 -158 372 -508 92 -129 229 -321 304 -427 76 -106 144 -200 151 -210 7 -10
545 -764 1196 -1675 l1184 -1657 48 32 c176 116 443 353 599 531 33 38 67 76
75 85 8 9 31 37 50 61 19 25 38 50 43 55 69 85 191 269 265 397 47 80 182 351
182 364 0 3 8 24 19 47 20 45 76 203 110 307 47 149 109 446 126 605 4 33 9
71 11 85 9 47 11 525 4 605 -15 155 -21 210 -25 225 -2 8 -7 35 -10 60 -17
129 -80 384 -136 552 -348 1038 -1164 1854 -2204 2206 -167 56 -419 119 -555
137 -19 3 -46 7 -60 10 -13 2 -52 7 -86 11 -33 3 -74 8 -90 10 -33 5 -540 14
-546 10z m1850 -1873 c5 -8 8 -2648 3 -2769 -1 -20 -6 -20 -231 -20 -203 -1
-230 1 -231 15 -5 82 -3 2760 2 2771 6 13 41 15 229 14 148 0 224 -4 228 -11z"/>
</g>
</svg>
