<svg width="25" height="24" viewBox="0 0 25 24" fill="none" xmlns="http://www.w3.org/2000/svg">
<g id="circle-dot-filled" clip-path="url(#clip0_61_4971)">
<path id="Vector" d="M17.311 3.34001C18.8193 4.21087 20.074 5.46054 20.9509 6.96531C21.8277 8.47009 22.2964 10.1778 22.3105 11.9194C22.3245 13.6609 21.8835 15.376 21.0311 16.8947C20.1786 18.4135 18.9443 19.6832 17.4503 20.5783C15.9563 21.4734 14.2544 21.9628 12.5131 21.9981C10.7719 22.0333 9.05159 21.6132 7.52259 20.7793C5.99359 19.9453 4.70891 18.7265 3.7957 17.2435C2.8825 15.7605 2.37244 14.0647 2.31604 12.324L2.31104 12L2.31604 11.676C2.37204 9.94901 2.87458 8.26598 3.77467 6.79101C4.67477 5.31604 5.94169 4.09947 7.45193 3.2599C8.96217 2.42033 10.6642 1.98641 12.392 2.00045C14.1199 2.01449 15.8146 2.47601 17.311 3.34001ZM12.311 10C11.8331 9.99999 11.371 10.1711 11.0083 10.4824C10.6456 10.7937 10.4064 11.2246 10.334 11.697L10.316 11.851L10.311 12L10.316 12.15C10.3452 12.5381 10.487 12.9092 10.7239 13.2178C10.9609 13.5265 11.2828 13.7594 11.6501 13.8879C12.0174 14.0163 12.4142 14.0349 12.7919 13.9412C13.1696 13.8475 13.5118 13.6457 13.7765 13.3604C14.0412 13.0751 14.2169 12.7189 14.2821 12.3352C14.3473 11.9516 14.2992 11.5572 14.1437 11.2005C13.9881 10.8438 13.7319 10.5403 13.4064 10.327C13.0808 10.1138 12.7002 10.0001 12.311 10Z" fill="white"/>
</g>
<defs>
<clipPath id="clip0_61_4971">
<rect width="24" height="24" fill="white" transform="translate(0.311035)"/>
</clipPath>
</defs>
</svg>
