<svg width="24" height="25" viewBox="0 0 24 25" fill="none" xmlns="http://www.w3.org/2000/svg">
<path fill-rule="evenodd" clip-rule="evenodd" d="M11.3069 3.03523C12.0032 2.97165 12.926 2.97237 13.845 3.22409C16.797 4.03302 18.9661 6.73601 18.9661 9.94539V14.7237C18.9661 14.7538 18.975 14.7833 18.9917 14.8084L20.8548 17.6039C21.0317 17.8692 21.0481 18.2104 20.8977 18.4915C20.7473 18.7727 20.4544 18.9482 20.1356 18.9482H15.5233C15.4474 18.9482 15.383 19.004 15.3723 19.0792C15.1361 20.7305 13.7161 22 12 22C10.2839 22 8.86386 20.7305 8.62773 19.0792C8.61698 19.004 8.55263 18.9482 8.47672 18.9482H3.86441C3.54562 18.9482 3.25271 18.7727 3.10228 18.4915C2.95186 18.2104 2.96835 17.8692 3.14518 17.6039L5.00828 14.8084C5.02499 14.7833 5.0339 14.7538 5.0339 14.7237V9.94539C5.0339 6.73601 7.20378 4.03281 10.1558 3.22388L10.1593 3.22295L10.1742 3.21907C10.1876 3.21563 10.2079 3.21055 10.2346 3.20421C10.2881 3.19153 10.3671 3.17381 10.468 3.15406C10.67 3.11453 10.9594 3.06696 11.3069 3.03523ZM10.5614 18.9482C10.5119 18.9482 10.4654 18.9722 10.4368 19.0127C10.4082 19.0531 10.4011 19.1049 10.4176 19.1516C10.6478 19.8034 11.2692 20.2706 12 20.2706C12.7308 20.2706 13.3522 19.8034 13.5824 19.1516C13.5989 19.1049 13.5918 19.0531 13.5632 19.0127C13.5346 18.9722 13.4881 18.9482 13.4386 18.9482H10.5614ZM5.63767 16.9816C5.60647 17.0284 5.60356 17.0886 5.6301 17.1383C5.65665 17.1879 5.70834 17.2188 5.76459 17.2188H18.2354C18.2917 17.2188 18.3434 17.1879 18.3699 17.1383C18.3964 17.0886 18.3935 17.0284 18.3623 16.9816L17.3825 15.5114C17.2878 15.3693 17.2373 15.2024 17.2373 15.0317V9.94539C17.2373 7.05201 14.8925 4.70646 12 4.70646C9.10753 4.70646 6.76271 7.05201 6.76271 9.94539V15.0317C6.76271 15.2024 6.7122 15.3693 6.61754 15.5114L5.63767 16.9816Z" fill="black"/>
</svg>
