<svg width="24" height="25" viewBox="0 0 24 25" fill="none" xmlns="http://www.w3.org/2000/svg">
<path fill-rule="evenodd" clip-rule="evenodd" d="M5 4.52143C5 4.09538 5.34822 3.75 5.77778 3.75H18.2222C18.6518 3.75 19 4.09538 19 4.52143V20.9786C19 21.2699 18.8345 21.5364 18.5721 21.6675C18.3098 21.7986 17.9953 21.7719 17.7593 21.5985L12 17.3672L6.24073 21.5985C6.00467 21.7719 5.69024 21.7986 5.42788 21.6675C5.16552 21.5364 5 21.2699 5 20.9786V4.52143ZM6.55556 5.29286V19.4471L11.537 15.7873C11.8121 15.5852 12.1879 15.5852 12.463 15.7873L17.4444 19.4471V5.29286H6.55556Z" fill="#B6B6B6"/>
</svg>
