<svg width="24" height="24" viewBox="0 0 24 24" fill="none" xmlns="http://www.w3.org/2000/svg">
<path fill-rule="evenodd" clip-rule="evenodd" d="M16.4287 3.79413C16.4287 3.35554 16.0833 3 15.6573 3C15.2312 3 14.8858 3.35554 14.8858 3.79413V4.16431H9.11417V3.79413C9.11417 3.35554 8.76879 3 8.34275 3C7.9167 3 7.57132 3.35554 7.57132 3.79413V4.16431H5.6C4.24252 4.16431 3 5.20173 3 6.6526V18.5117C3 19.9626 4.24252 21 5.6 21H18.4C19.7575 21 21 19.9626 21 18.5117V6.6526C21 5.20173 19.7575 4.16431 18.4 4.16431H16.4287V3.79413ZM19.4571 9.24756V6.6526C19.4571 6.23215 19.0623 5.75257 18.4 5.75257H16.4287V6.44122C16.4287 6.87981 16.0833 7.23535 15.6573 7.23535C15.2312 7.23535 14.8858 6.87981 14.8858 6.44122V5.75257H9.11417V6.44122C9.11417 6.87981 8.76879 7.23535 8.34275 7.23535C7.9167 7.23535 7.57132 6.87981 7.57132 6.44122V5.75257H5.6C4.9377 5.75257 4.54286 6.23215 4.54286 6.6526V9.24756H19.4571ZM4.54286 10.8358H19.4571V18.5117C19.4571 18.9322 19.0623 19.4117 18.4 19.4117H5.6C4.9377 19.4117 4.54286 18.9322 4.54286 18.5117V10.8358Z" fill="#022DB0"/>
<path d="M6.85714 12.7943H8.91429V14.9119H6.85714V12.7943Z" fill="#022DB0"/>
<path d="M10.9714 12.7943H13.0286V14.9119H10.9714V12.7943Z" fill="#022DB0"/>
<path d="M15.0857 12.7943H17.1429V14.9119H15.0857V12.7943Z" fill="#022DB0"/>
</svg>
