<svg width="32" height="32" viewBox="0 0 32 32" fill="none" xmlns="http://www.w3.org/2000/svg">
<g clip-path="url(#clip0_2703_42832)">
<path d="M19.8402 13.5573C20.3338 14.0511 20.7253 14.6373 20.9923 15.2823C21.2594 15.9274 21.3968 16.6188 21.3967 17.3169C21.3965 18.0151 21.2589 18.7064 20.9916 19.3514C20.7243 19.9964 20.3326 20.5824 19.8388 21.076C19.3451 21.5696 18.7589 21.9611 18.1138 22.2282C17.4688 22.4952 16.7774 22.6326 16.0792 22.6325C15.3811 22.6324 14.6897 22.4947 14.0448 22.2274C13.3998 21.9602 12.8138 21.5684 12.3202 21.0747C11.3233 20.0775 10.7634 18.7251 10.7637 17.3151C10.7639 15.905 11.3243 14.5529 12.3215 13.556C13.3187 12.5591 14.6711 11.9993 16.0811 11.9995C17.4911 11.9998 18.8433 12.5601 19.8402 13.5573Z" stroke="#022DB0" stroke-width="1.5" stroke-linecap="round" stroke-linejoin="round"/>
<path d="M28 12V24C28 24.7072 27.719 25.3855 27.219 25.8856C26.7189 26.3857 26.0406 26.6667 25.3333 26.6667H6.66667C5.95942 26.6667 5.28115 26.3857 4.78105 25.8856C4.28095 25.3855 4 24.7072 4 24V12C4 11.2928 4.28095 10.6145 4.78105 10.1144C5.28115 9.61429 5.95942 9.33334 6.66667 9.33334H9.33333L11.2827 5.99467C11.4001 5.79337 11.5683 5.62637 11.7704 5.51033C11.9726 5.39429 12.2016 5.33327 12.4347 5.33334H19.5067C19.9747 5.33334 20.408 5.57867 20.6493 5.97867L22.6667 9.33334H25.3333C26.0406 9.33334 26.7189 9.61429 27.219 10.1144C27.719 10.6145 28 11.2928 28 12Z" stroke="#022DB0" stroke-width="1.5" stroke-linecap="round" stroke-linejoin="round"/>
</g>
<defs>
<clipPath id="clip0_2703_42832">
<rect width="32" height="32" fill="white"/>
</clipPath>
</defs>
</svg>
