<svg width="24" height="24" viewBox="0 0 24 24" fill="none" xmlns="http://www.w3.org/2000/svg">
<circle cx="12" cy="12" r="10" fill="white"/>
<path d="M8.97169 7.80245L11.8629 10.6936C11.9385 10.7692 12.0611 10.7692 12.1368 10.6936L15.0279 7.80245C15.3509 7.47951 15.8745 7.47951 16.1974 7.80245C16.5204 8.1254 16.5204 8.64899 16.1974 8.97194L13.3062 11.8631C13.2306 11.9387 13.2306 12.0614 13.3062 12.137L16.1974 15.0282C16.5204 15.3511 16.5204 15.8747 16.1974 16.1977C15.8745 16.5206 15.3509 16.5206 15.0279 16.1977L12.1368 13.3065C12.0611 13.2309 11.9385 13.2309 11.8629 13.3065L8.97169 16.1977C8.64875 16.5206 8.12515 16.5206 7.8022 16.1977C7.47926 15.8747 7.47926 15.3511 7.8022 15.0282L10.6934 12.137C10.769 12.0614 10.769 11.9387 10.6934 11.8631L7.8022 8.97194C7.47926 8.64899 7.47926 8.1254 7.8022 7.80245C8.12515 7.47951 8.64875 7.47951 8.97169 7.80245Z" fill="#0D0434"/>
<path fill-rule="evenodd" clip-rule="evenodd" d="M2 12C2 6.47715 6.47715 2 12 2C17.5228 2 22 6.47715 22 12C22 17.5228 17.5228 22 12 22C6.47715 22 2 17.5228 2 12ZM12 3.58803C7.3542 3.58803 3.58803 7.3542 3.58803 12C3.58803 16.6458 7.3542 20.412 12 20.412C16.6458 20.412 20.412 16.6458 20.412 12C20.412 7.3542 16.6458 3.58803 12 3.58803Z" fill="#0D0434"/>
</svg>
