<svg width="32" height="32" viewBox="0 0 32 32" fill="none" xmlns="http://www.w3.org/2000/svg">
<path d="M11.9621 10.4031L15.817 14.258C15.9178 14.3588 16.0813 14.3588 16.1822 14.258L20.0371 10.4031C20.4677 9.97251 21.1658 9.97251 21.5964 10.4031C22.027 10.8337 22.027 11.5318 21.5964 11.9624L17.7415 15.8173C17.6407 15.9182 17.6407 16.0817 17.7415 16.1825L21.5964 20.0374C22.027 20.468 22.027 21.1661 21.5964 21.5967C21.1658 22.0273 20.4677 22.0273 20.0371 21.5967L16.1822 17.7418C16.0813 17.641 15.9178 17.641 15.817 17.7418L11.9621 21.5967C11.5315 22.0273 10.8334 22.0273 10.4028 21.5967C9.97218 21.1661 9.97218 20.468 10.4028 20.0374L14.2577 16.1825C14.3585 16.0817 14.3585 15.9182 14.2577 15.8173L10.4028 11.9624C9.97218 11.5318 9.97218 10.8337 10.4028 10.4031C10.8334 9.97251 11.5315 9.97251 11.9621 10.4031Z" fill="#CCCCCC"/>
<path fill-rule="evenodd" clip-rule="evenodd" d="M2.6665 15.9998C2.6665 8.63604 8.63604 2.6665 15.9998 2.6665C23.3636 2.6665 29.3332 8.63604 29.3332 15.9998C29.3332 23.3636 23.3636 29.3332 15.9998 29.3332C8.63604 29.3332 2.6665 23.3636 2.6665 15.9998ZM15.9998 4.78388C9.80544 4.78388 4.78388 9.80544 4.78388 15.9998C4.78388 22.1942 9.80544 27.2158 15.9998 27.2158C22.1942 27.2158 27.2158 22.1942 27.2158 15.9998C27.2158 9.80544 22.1942 4.78388 15.9998 4.78388Z" fill="#CCCCCC"/>
</svg>
