<svg width="24" height="24" viewBox="0 0 24 24" fill="none" xmlns="http://www.w3.org/2000/svg">
<path fill-rule="evenodd" clip-rule="evenodd" d="M12 5.21429C7.42393 5.21429 3.71429 8.92393 3.71429 13.5C3.71429 18.0761 7.42393 21.7857 12 21.7857C16.5761 21.7857 20.2857 18.0761 20.2857 13.5C20.2857 8.92393 16.5761 5.21429 12 5.21429ZM2 13.5C2 7.97715 6.47715 3.5 12 3.5C17.5228 3.5 22 7.97715 22 13.5C22 19.0228 17.5228 23.5 12 23.5C6.47715 23.5 2 19.0228 2 13.5Z" fill="#0D0434"/>
<path fill-rule="evenodd" clip-rule="evenodd" d="M12.0001 6.9209C12.4361 6.9209 12.7895 7.27436 12.7895 7.71037V8.42808H14.6795C15.1155 8.42808 15.469 8.78154 15.469 9.21755C15.469 9.65356 15.1155 10.007 14.6795 10.007H10.465C10.1044 10.007 9.75853 10.1503 9.50355 10.4053C9.24856 10.6602 9.10531 11.0061 9.10531 11.3667C9.10531 11.7273 9.24856 12.0731 9.50355 12.3281C9.75853 12.5831 10.1044 12.7263 10.465 12.7263H13.5351C14.3145 12.7263 15.0619 13.0359 15.613 13.587C16.1641 14.1381 16.4737 14.8856 16.4737 15.6649C16.4737 16.4443 16.1641 17.1917 15.613 17.7428C15.0619 18.2939 14.3145 18.6035 13.5351 18.6035H12.7895V19.4329C12.7895 19.8689 12.4361 20.2223 12.0001 20.2223C11.564 20.2223 11.2106 19.8689 11.2106 19.4329V18.6035H8.9453C8.50929 18.6035 8.15583 18.2501 8.15583 17.814C8.15583 17.378 8.50929 17.0246 8.94531 17.0246H13.5351C13.8957 17.0246 14.2416 16.8813 14.4966 16.6263C14.7515 16.3714 14.8948 16.0255 14.8948 15.6649C14.8948 15.3043 14.7515 14.9585 14.4966 14.7035C14.2416 14.4485 13.8957 14.3053 13.5351 14.3053H10.465C9.6856 14.3053 8.93816 13.9957 8.38706 13.4446C7.83597 12.8935 7.52637 12.146 7.52637 11.3667C7.52637 10.5873 7.83597 9.83987 8.38706 9.28877C8.93816 8.73768 9.6856 8.42808 10.465 8.42808H11.2106V7.71037C11.2106 7.27436 11.564 6.9209 12.0001 6.9209Z" fill="#0D0434"/>
</svg>
