<svg width="16" height="16" viewBox="0 0 16 16" fill="none" xmlns="http://www.w3.org/2000/svg">
<path fill-rule="evenodd" clip-rule="evenodd" d="M8.00024 11.6696C7.69433 11.6696 7.4431 11.9134 7.4431 12.2182C7.4431 12.5229 7.69433 12.7668 8.00024 12.7668H12.8764C13.1823 12.7668 13.4336 12.5229 13.4336 12.2182C13.4336 11.9134 13.1823 11.6696 12.8764 11.6696H8.00024Z" fill="#B6B6B6"/>
<path fill-rule="evenodd" clip-rule="evenodd" d="M11.251 2.56689C10.799 2.56689 10.3652 2.74307 10.045 3.05724L3.27256 9.70305C3.20104 9.77324 3.1501 9.86138 3.12545 9.95814L2.58365 12.0848C2.53582 12.2726 2.59206 12.4708 2.73076 12.6069C2.86928 12.7428 3.06968 12.797 3.25875 12.7506L5.42595 12.2189C5.52361 12.195 5.61302 12.1454 5.68453 12.0752L12.457 5.42939C12.6156 5.27381 12.7414 5.08901 12.8273 4.88548C12.9133 4.68195 12.9575 4.46373 12.9575 4.24332C12.9575 4.0229 12.9133 3.80469 12.8273 3.60116C12.7414 3.39763 12.6156 3.21283 12.457 3.05724C12.2985 2.90167 12.1104 2.77835 11.9035 2.69425C11.6966 2.61016 11.4749 2.56689 11.251 2.56689ZM11.6704 4.65224L5.00707 11.191L3.89039 11.4649L4.16863 10.3728L10.8316 3.8344C10.9425 3.72556 11.0934 3.66408 11.251 3.66408C11.3291 3.66408 11.4063 3.67916 11.4783 3.70842C11.5502 3.73768 11.6155 3.78052 11.6704 3.8344C11.7253 3.88827 11.7688 3.95213 11.7984 4.02227C11.828 4.09241 11.8432 4.16752 11.8432 4.24332C11.8432 4.31912 11.828 4.39423 11.7984 4.46436C11.7688 4.53451 11.7253 4.59836 11.6704 4.65224Z" fill="#B6B6B6"/>
</svg>
