<svg width="24" height="24" viewBox="0 0 24 24" fill="none" xmlns="http://www.w3.org/2000/svg">
<g clip-path="url(#clip0_2804_30642)">
<path d="M12.0001 18.9999C11.1581 18.9999 10.3151 18.8219 9.49609 18.5049" stroke="#0D0434" stroke-width="1.5" stroke-linecap="round" stroke-linejoin="round"/>
<path d="M20.882 12.4678C18.99 15.9668 15.495 18.9998 12 18.9998" stroke="#0D0434" stroke-width="1.5" stroke-linecap="round" stroke-linejoin="round"/>
<path d="M19.0791 8.9209C19.77 9.72597 20.3743 10.6014 20.8821 11.5329C20.9594 11.6766 20.9998 11.8372 20.9998 12.0004C20.9998 12.1636 20.9594 12.3242 20.8821 12.4679" stroke="#0D0434" stroke-width="1.5" stroke-linecap="round" stroke-linejoin="round"/>
<path d="M5 19L19 5" stroke="#0D0434" stroke-width="1.5" stroke-linecap="round" stroke-linejoin="round"/>
<path d="M9.77325 14.2268C9.18248 13.636 8.85059 12.8348 8.85059 11.9993C8.85059 11.5856 8.93207 11.176 9.09038 10.7938C9.24869 10.4116 9.48073 10.0643 9.77325 9.77178C10.0658 9.47926 10.413 9.24722 10.7952 9.08891C11.1774 8.9306 11.5871 8.84912 12.0007 8.84912C12.8362 8.84912 13.6375 9.18101 14.2282 9.77178" stroke="#0D0434" stroke-width="1.5" stroke-linecap="round" stroke-linejoin="round"/>
<path d="M17.0437 6.956C15.4967 5.759 13.7477 5 11.9997 5C8.50474 5 5.00974 8.033 3.11774 11.533C3.04045 11.6767 3 11.8373 3 12.0005C3 12.1637 3.04045 12.3243 3.11774 12.468C4.06374 14.217 5.40974 15.849 6.95574 17.045" stroke="#0D0434" stroke-width="1.5" stroke-linecap="round" stroke-linejoin="round"/>
</g>
<defs>
<clipPath id="clip0_2804_30642">
<rect width="24" height="24" fill="white"/>
</clipPath>
</defs>
</svg>
