<svg width="25" height="24" viewBox="0 0 25 24" fill="none" xmlns="http://www.w3.org/2000/svg">
<g clip-path="url(#clip0_2684_34586)">
<path d="M14.6222 9.87998C15.1846 10.4432 15.5004 11.2066 15.5004 12.0025C15.5004 12.7984 15.1846 13.5618 14.6222 14.125C14.059 14.6873 13.2956 15.0032 12.4997 15.0032C11.7038 15.0032 10.9405 14.6873 10.3772 14.125C9.81488 13.5618 9.49902 12.7984 9.49902 12.0025C9.49902 11.2066 9.81488 10.4432 10.3772 9.87998C10.6558 9.60105 10.9867 9.37978 11.3509 9.2288C11.7151 9.07783 12.1055 9.00012 12.4997 9.00012C12.894 9.00012 13.2844 9.07783 13.6485 9.2288C14.0127 9.37978 14.3436 9.60105 14.6222 9.87998Z" stroke="currentColor" stroke-width="1.5" stroke-linecap="round" stroke-linejoin="round"/>
<path d="M3.5 12C3.5 11.341 3.652 10.689 3.946 10.088C5.461 6.991 8.809 5 12.5 5C16.191 5 19.539 6.991 21.054 10.088C21.348 10.689 21.5 11.341 21.5 12C21.5 12.659 21.348 13.311 21.054 13.912C19.539 17.009 16.191 19 12.5 19C8.809 19 5.461 17.009 3.946 13.912C3.65344 13.317 3.50088 12.663 3.5 12Z" stroke="currentColor" stroke-width="1.5" stroke-linecap="round" stroke-linejoin="round"/>
</g>
<defs>
<clipPath id="clip0_2684_34586">
<rect width="24" height="24" fill="white" transform="translate(0.5)"/>
</clipPath>
</defs>
</svg>
