<svg width="24" height="24" viewBox="0 0 24 24" fill="none" xmlns="http://www.w3.org/2000/svg">
<path d="M22.7858 12.2532C22.7858 11.5055 22.7251 10.7537 22.5958 10.0181H12.2202V14.254H18.1618C17.9153 15.6201 17.1231 16.8287 15.963 17.5966V20.3451H19.5078C21.5894 18.4293 22.7858 15.5999 22.7858 12.2532Z" fill="#4285F4"/>
<path d="M12.2205 23.0006C15.1873 23.0006 17.6892 22.0265 19.5121 20.3451L15.9674 17.5966C14.9812 18.2675 13.708 18.6475 12.2246 18.6475C9.35483 18.6475 6.9216 16.7114 6.04855 14.1084H2.39062V16.9418C4.25799 20.6563 8.06142 23.0006 12.2205 23.0006Z" fill="#34A853"/>
<path d="M6.04423 14.1085C5.58345 12.7424 5.58345 11.263 6.04423 9.89685V7.06348H2.39035C0.830171 10.1717 0.830171 13.8337 2.39035 16.9419L6.04423 14.1085Z" fill="#FBBC04"/>
<path d="M12.2205 5.35387C13.7888 5.32962 15.3045 5.91974 16.4403 7.00297L19.5808 3.86241C17.5922 1.99505 14.9529 0.968406 12.2205 1.00074C8.06142 1.00074 4.25799 3.34505 2.39062 7.0636L6.04451 9.89697C6.91352 7.28995 9.35079 5.35387 12.2205 5.35387Z" fill="#EA4335"/>
</svg>
