<svg width="24" height="24" viewBox="0 0 24 24" fill="none" xmlns="http://www.w3.org/2000/svg">
<path d="M18.9643 5.49235C16.0714 5.17196 13.8214 4.31758 12.4286 3.14282C12.1739 2.95239 11.8261 2.95239 11.5714 3.14282C9.42857 4.74477 7.17857 5.49235 5.14286 5.49235C4.78782 5.49235 4.5 5.78355 4.5 6.14276V14.3565C4.5 17.0264 6.85714 19.5895 11.6786 21.939L11.7731 21.9704C11.9185 22.0188 12.0769 22.0075 12.2143 21.939C17.0357 19.8031 19.5 17.3468 19.5 14.3565V6.15158C19.5 5.83057 19.2756 5.5544 18.9643 5.49235ZM17.8929 14.3565C17.8929 17.0264 14.7857 18.9487 12 20.2303C8.03571 18.308 6.10714 16.2788 6.10714 14.3565V7.0943C8.03571 6.8807 9.96429 6.13313 12 4.85157C13.5 5.91953 15.4286 6.66711 17.8929 6.9875V14.3565Z" fill="#CCCCCC"/>
<path fill-rule="evenodd" clip-rule="evenodd" d="M16.5 10.3571C16.8096 10.0475 16.8096 9.5455 16.5 9.23587C16.1904 8.92624 15.6884 8.92624 15.3787 9.23587L10.7965 13.8181L8.78572 11.8073C8.47609 11.4977 7.97408 11.4977 7.66445 11.8073C7.35482 12.1169 7.35482 12.6189 7.66445 12.9286L10.2359 15.5C10.5455 15.8096 11.0475 15.8096 11.3571 15.5L16.5 10.3571Z" fill="#CCCCCC"/>
</svg>
