<svg width="15" height="14" viewBox="0 0 15 14" fill="#00BE90" xmlns="http://www.w3.org/2000/svg">
  <path
    d="M7.61923 0.583344L10.1757 2.08806L9.69162 2.93098L7.59362 1.6961L3.27914 3.97031C3.51929 4.17605 3.83089 4.42849 4.18536 4.68152C5.0352 5.28816 6.03658 5.82825 6.86761 5.85252C7.09895 5.85927 7.43973 5.79417 7.85368 5.66662C8.25757 5.54217 8.69242 5.37075 9.09717 5.19463C9.50069 5.01904 9.86726 4.84188 10.1333 4.70841C10.2661 4.64177 10.3733 4.58628 10.447 4.54764C10.4838 4.52833 10.5122 4.51324 10.5312 4.50311C10.5407 4.49804 10.5478 4.49421 10.5524 4.49171L10.5575 4.48896L10.5588 4.48827C10.5588 4.48827 10.5588 4.48825 10.5593 4.48902L11.0621 5.31657L11.0625 5.31727L11.0612 5.31819L11.0563 5.32172L11.0503 5.32602L11.0357 5.33646C11.0174 5.34962 10.9901 5.36933 10.955 5.39501C10.8846 5.44636 10.7829 5.52147 10.6588 5.61547C10.4103 5.80374 10.0739 6.06651 9.72068 6.36525C9.36651 6.66481 9.00131 6.9957 8.69274 7.32029C8.37725 7.65215 8.1496 7.94803 8.03977 8.17747C7.69176 8.90443 7.67505 10.0062 7.77691 11.0044C7.81971 11.4237 7.88116 11.8055 7.93718 12.1037L12.0782 9.71841V7.06227H13.0413V10.2855L7.6053 13.4167L1.95801 10.1328V3.56743L7.61923 0.583344Z"
  />
  <path
    d="M12.9883 3.56972L11.3546 2.58496L10.8619 3.42272L12.0252 4.12394V5.47411H12.9883V3.56972Z" />
</svg>