<svg width="32" height="32" viewBox="0 0 32 32" xmlns="http://www.w3.org/2000/svg">
<path fill-rule="evenodd" clip-rule="evenodd" d="M16.5086 5.80017C17.697 4.63212 19.2887 3.98563 20.9412 4.00024C22.5936 4.01486 24.1741 4.6894 25.3423 5.87828C26.5105 7.06713 27.1729 8.67515 27.1873 10.356C27.2016 12.0368 26.5667 13.6563 25.419 14.8656L25.4071 14.8782L22.2206 18.1209C22.2206 18.1209 22.2205 18.1209 22.2206 18.1209C21.5818 18.7711 20.813 19.2741 19.9664 19.5955C19.1198 19.917 18.2151 20.0493 17.3137 19.9836C16.4123 19.9179 15.5354 19.6557 14.7424 19.2148C13.9495 18.7739 13.259 18.1646 12.7179 17.4284C12.3905 16.983 12.4803 16.3522 12.9183 16.0194C13.3564 15.6865 13.9769 15.7778 14.3042 16.2232C14.6754 16.7282 15.1489 17.146 15.6926 17.4483C16.2363 17.7506 16.8374 17.9303 17.4553 17.9753C18.0731 18.0204 18.6933 17.9296 19.2737 17.7093C19.8541 17.489 20.3812 17.1441 20.8193 16.6981L23.9996 13.4615C24.7832 12.6327 25.2168 11.5242 25.207 10.3734C25.1972 9.21993 24.7425 8.11669 23.9413 7.3013C23.1401 6.48594 22.0565 6.02362 20.9239 6.0136C19.7936 6.00361 18.7044 6.44491 17.89 7.24294L16.0683 9.08603C15.6807 9.47822 15.0538 9.47667 14.668 9.08257C14.2823 8.68847 14.2838 8.05105 14.6714 7.65886L16.5086 5.80017Z" fill="currentColor"/>
<path fill-rule="evenodd" clip-rule="evenodd" d="M11.2211 11.8439C12.0677 11.5225 12.9724 11.3901 13.8738 11.4558C14.7752 11.5215 15.6521 11.7838 16.4451 12.2247C17.238 12.6656 17.9285 13.2748 18.4696 14.011C18.797 14.4564 18.7072 15.0873 18.2692 15.4201C17.8311 15.7529 17.2106 15.6617 16.8833 15.2163C16.5121 14.7113 16.0386 14.2935 15.4949 13.9912C14.9512 13.6889 14.3501 13.5092 13.7322 13.4641C13.1144 13.4191 12.4942 13.5098 11.9138 13.7302C11.3334 13.9505 10.8063 14.2953 10.3682 14.7413L7.1879 17.9779C6.4043 18.8067 5.97067 19.9153 5.9805 21.066C5.99035 22.2195 6.44499 23.3228 7.2462 24.1382C8.04738 24.9535 9.13098 25.4158 10.2636 25.4259C11.3934 25.4358 12.4822 24.9949 13.2966 24.1975L15.1065 22.3555C15.493 21.9622 16.1199 21.9619 16.5068 22.3548C16.8937 22.7478 16.894 23.3852 16.5075 23.7785L14.679 25.6394C13.4907 26.8074 11.8988 27.4538 10.2463 27.4392C8.5939 27.4246 7.01341 26.7501 5.84521 25.5612C4.67704 24.3723 4.01459 22.7643 4.00024 21.0835C3.98589 19.4027 4.62078 17.7832 5.76846 16.5739L5.78041 16.5613L8.96694 13.3186C8.9669 13.3186 8.96698 13.3185 8.96694 13.3186C9.60566 12.6683 10.3745 12.1653 11.2211 11.8439Z" fill="currentColor"/>
</svg>
