<svg width="21" height="20" viewBox="0 0 21 20" fill="none" xmlns="http://www.w3.org/2000/svg">
<path fill-rule="evenodd" clip-rule="evenodd" d="M7.25181 8.29934C7.25181 6.52252 8.71374 5.06805 10.4997 5.06805C12.2856 5.06805 13.7475 6.52252 13.7475 8.29934C13.7475 10.0762 12.2856 11.5306 10.4997 11.5306C8.71374 11.5306 7.25181 10.0762 7.25181 8.29934ZM8.61933 8.29934C8.61933 9.32864 9.4651 10.1701 10.4997 10.1701C11.5343 10.1701 12.38 9.32864 12.38 8.29934C12.38 7.27004 11.5343 6.42859 10.4997 6.42859C9.4651 6.42859 8.61933 7.27004 8.61933 8.29934Z" fill="#B6B6B6"/>
<path fill-rule="evenodd" clip-rule="evenodd" d="M3.83301 8.29934C3.83301 4.65177 6.8334 1.66669 10.4997 1.66669C14.1659 1.66669 17.1663 4.65177 17.1663 8.29934C17.1663 10.5325 15.7054 12.937 14.1802 14.8365C12.8534 16.4889 11.5065 17.7257 11.0946 18.1039C11.0526 18.1424 11.0204 18.172 10.9988 18.1923C10.8394 18.2679 10.6258 18.3334 10.4997 18.3334C10.3736 18.3334 10.1599 18.2679 10.0005 18.1923C9.97899 18.172 9.94676 18.1424 9.90485 18.104C9.49293 17.7257 8.146 16.4889 6.81913 14.8365C5.29393 12.937 3.83301 10.5325 3.83301 8.29934ZM10.3818 16.6708L10.4997 16.7825L10.6176 16.6708C11.5206 15.8152 12.8108 14.4462 13.8768 12.9358C14.9374 11.4328 15.7988 9.75855 15.7988 8.29934C15.7988 5.39929 13.4146 3.02723 10.4997 3.02723C7.58475 3.02723 5.20053 5.39929 5.20053 8.29934C5.20053 9.80074 6.06149 11.4748 7.12293 12.9681C8.18918 14.4683 9.4796 15.816 10.3818 16.6708Z" fill="#B6B6B6"/>
</svg>
