<svg width="24" height="25" viewBox="0 0 24 25" fill="none" xmlns="http://www.w3.org/2000/svg">
<path fill-rule="evenodd" clip-rule="evenodd" d="M6.70216 14.1854V16.533L10.0034 14.1854H15.9389C16.7779 14.1854 17.4579 13.5053 17.4579 12.6664V5.538C17.4579 4.69908 16.7779 4.019 15.9389 4.019H5.03797C4.19906 4.019 3.51899 4.69908 3.51899 5.538V12.6664C3.51899 13.5053 4.19906 14.1854 5.03798 14.1854H6.70216ZM10.4885 15.7044H15.9389C17.6168 15.7044 18.9769 14.3442 18.9769 12.6664V5.538C18.9769 3.86016 17.6168 2.5 15.9389 2.5H5.03797C3.36015 2.5 2 3.86016 2 5.538V12.6664C2 14.3442 3.36015 15.7044 5.03798 15.7044H5.18317V17.5143C5.18317 18.337 6.11223 18.8164 6.78269 18.3396L10.4885 15.7044Z" fill="black"/>
<path d="M5.77344 9.10208C5.77344 8.58118 6.19571 8.15891 6.7166 8.15891C7.23749 8.15891 7.65976 8.58118 7.65976 9.10208C7.65976 9.62298 7.23749 10.0452 6.7166 10.0452C6.19571 10.0452 5.77344 9.62298 5.77344 9.10208Z" fill="black"/>
<path d="M9.54492 9.10208C9.54492 8.58118 9.96719 8.15891 10.4881 8.15891C11.009 8.15891 11.4312 8.58118 11.4312 9.10208C11.4312 9.62298 11.009 10.0452 10.4881 10.0452C9.96719 10.0452 9.54492 9.62298 9.54492 9.10208Z" fill="black"/>
<path d="M13.3184 9.10208C13.3184 8.58118 13.7406 8.15891 14.2615 8.15891C14.7824 8.15891 15.2047 8.58118 15.2047 9.10208C15.2047 9.62298 14.7824 10.0452 14.2615 10.0452C13.7406 10.0452 13.3184 9.62298 13.3184 9.10208Z" fill="black"/>
<path fill-rule="evenodd" clip-rule="evenodd" d="M21.2405 7.81649C20.8211 7.81649 20.481 8.15653 20.481 8.57599V16.2339C20.481 16.933 19.9143 17.4997 19.2152 17.4997H17.608V19.5447L15.3041 17.4997H11.1139C10.6945 17.4997 10.3544 17.8397 10.3544 18.2592C10.3544 18.6786 10.6945 19.0187 11.1139 19.0187H14.7272L17.1894 21.2041C17.9406 21.8709 19.127 21.3376 19.127 20.3332V19.0187H19.2152C20.7532 19.0187 22 17.7719 22 16.2339V8.57599C22 8.15653 21.66 7.81649 21.2405 7.81649Z" fill="black"/>
</svg>
