<svg width="20" height="20" viewBox="0 0 20 20" fill="none" xmlns="http://www.w3.org/2000/svg">
<path fill-rule="evenodd" clip-rule="evenodd" d="M10.4414 0.833313L11.92 2.42052H14.8539L13.0453 5.52669C13.1256 5.58511 13.2103 5.6459 13.2988 5.70936C14.8357 6.81168 17.4997 8.7224 17.4997 13.061C17.4997 14.4365 17.312 15.7605 16.6494 16.7485C15.9581 17.7791 14.8297 18.3333 13.2042 18.3333H7.62846C6.00297 18.3333 4.87455 17.7791 4.1833 16.7485C3.52064 15.7605 3.33301 14.4365 3.33301 13.061C3.33301 8.7224 5.99698 6.81168 7.53385 5.70936C7.62234 5.64589 7.7071 5.58511 7.78739 5.52669L5.97887 2.42052H8.96284L10.4414 0.833313ZM8.6998 6.25492C8.5124 6.40191 8.30563 6.55253 8.08718 6.71166C6.54571 7.83454 4.42276 9.381 4.42276 13.061C4.42276 14.3695 4.61018 15.3942 5.0727 16.0838C5.50661 16.7307 6.25348 17.183 7.62846 17.183H13.2042C14.5792 17.183 15.3261 16.7307 15.76 16.0838C16.2225 15.3942 16.4099 14.3695 16.4099 13.061C16.4099 9.381 14.287 7.83454 12.7455 6.71166C12.5271 6.55253 12.3203 6.40191 12.1329 6.25492H8.6998ZM12.0119 5.1046L12.905 3.57084H11.4632L10.4414 2.47395L9.4196 3.57084H7.92774L8.82075 5.1046H12.0119Z" fill="#B6B6B6"/>
<path fill-rule="evenodd" clip-rule="evenodd" d="M10.4355 7.02181C10.7206 7.02181 10.9517 7.25291 10.9517 7.538V8.06205H12.1587C12.4597 8.06205 12.7036 8.30601 12.7036 8.60694C12.7036 8.90787 12.4597 9.15183 12.1587 9.15183H9.43178C9.196 9.15183 8.96987 9.2507 8.80315 9.42669C8.63643 9.60267 8.54277 9.84137 8.54277 10.0903C8.54277 10.3391 8.63643 10.5778 8.80315 10.7538C8.96987 10.9298 9.196 11.0287 9.43178 11.0287H11.4392C11.9488 11.0287 12.4375 11.2424 12.7978 11.6227C13.1582 12.0031 13.3606 12.519 13.3606 13.0569C13.3606 13.5948 13.1582 14.1107 12.7978 14.491C12.4375 14.8714 11.9488 15.0851 11.4392 15.0851H10.9517V15.6862C10.9517 15.9713 10.7206 16.2024 10.4355 16.2024C10.1504 16.2024 9.91929 15.9713 9.91929 15.6862V15.0851H8.46684C8.16591 15.0851 7.92195 14.8411 7.92195 14.5402C7.92195 14.2392 8.16591 13.9953 8.46684 13.9953H11.4392C11.675 13.9953 11.9011 13.8964 12.0678 13.7204C12.2345 13.5444 12.3282 13.3058 12.3282 13.0569C12.3282 12.808 12.2345 12.5693 12.0678 12.3933C11.9011 12.2173 11.675 12.1185 11.4392 12.1185H9.43178C8.92219 12.1185 8.43347 11.9048 8.07314 11.5244C7.71281 11.144 7.51038 10.6282 7.51038 10.0903C7.51038 9.55234 7.71281 9.03646 8.07314 8.6561C8.43347 8.27574 8.92219 8.06205 9.43178 8.06205H9.91929V7.538C9.91929 7.25292 10.1504 7.02181 10.4355 7.02181Z" fill="#B6B6B6"/>
</svg>
