<svg width="32" height="32" viewBox="0 0 32 32" fill="currentColor" xmlns="http://www.w3.org/2000/svg">
<path fill-rule="evenodd" clip-rule="evenodd" d="M15.9998 26.9089C22.0248 26.9089 26.9089 22.0248 26.9089 15.9998C26.9089 9.97491 22.0248 5.09075 15.9998 5.09075C9.97491 5.09075 5.09075 9.97491 5.09075 15.9998C5.09075 22.0248 9.97491 26.9089 15.9998 26.9089ZM29.3332 15.9998C29.3332 23.3636 23.3636 29.3332 15.9998 29.3332C8.63604 29.3332 2.6665 23.3636 2.6665 15.9998C2.6665 8.63604 8.63604 2.6665 15.9998 2.6665C23.3636 2.6665 29.3332 8.63604 29.3332 15.9998Z" />
<path d="M15.9998 8.72711C16.7316 8.72711 17.3249 9.32034 17.3249 10.0521V14.6748H21.9475C22.6793 14.6748 23.2726 15.2681 23.2726 15.9998C23.2726 16.7316 22.6793 17.3249 21.9475 17.3249H17.3249V21.9475C17.3249 22.6793 16.7316 23.2726 15.9998 23.2726C15.2681 23.2726 14.6748 22.6793 14.6748 21.9475V17.3249H10.0521C9.32034 17.3249 8.72711 16.7316 8.72711 15.9998C8.72711 15.2681 9.32034 14.6748 10.0521 14.6748H14.6748V10.0521C14.6748 9.32034 15.268 8.72711 15.9998 8.72711Z" />
</svg>
