<svg width="24" height="24" viewBox="0 0 24 24" fill="currentColor" xmlns="http://www.w3.org/2000/svg"><path d="M12.15 7.504V5.438H12c-3.6 0-6.525 2.943-6.525 6.562 0 .805.144 1.58.412 2.295.156.414.09.878-.205 1.175-.437.439-1.138.34-1.366-.197A8.342 8.342 0 0 1 3.65 12c0-4.641 3.737-8.399 8.35-8.399h.15V1.535a.38.38 0 0 1 .65-.272l2.968 2.985c.15.15.15.394 0 .544L12.8 7.776a.38.38 0 0 1-.65-.272Zm-.3 8.992v2.066H12c3.6 0 6.525-2.943 6.525-6.562a6.53 6.53 0 0 0-.42-2.3c-.154-.41-.086-.87.207-1.164.44-.442 1.146-.342 1.375.198A8.343 8.343 0 0 1 20.35 12c0 4.641-3.738 8.399-8.35 8.399h-.15v2.066a.38.38 0 0 1-.65.272l-2.968-2.985a.386.386 0 0 1 0-.544l2.967-2.984a.38.38 0 0 1 .65.272Z"/></svg>