<svg width="25" height="24" viewBox="0 0 25 24" fill="none" xmlns="http://www.w3.org/2000/svg">
<path fill-rule="evenodd" clip-rule="evenodd" d="M11.5294 2.8501C7.01136 2.8501 3.3501 6.51552 3.3501 11.0354C3.3501 15.5553 7.01136 19.2207 11.5294 19.2207C13.3461 19.2207 15.0259 18.6271 16.3833 17.6241L19.6281 20.8716C19.9989 21.2427 20.6004 21.243 20.9716 20.8721C21.3427 20.5013 21.343 19.8998 20.9721 19.5286L17.7714 16.3252C18.9792 14.8991 19.7087 13.0518 19.7087 11.0354C19.7087 6.51552 16.0475 2.8501 11.5294 2.8501ZM5.2501 11.0354C5.2501 7.56338 8.06218 4.7501 11.5294 4.7501C14.9967 4.7501 17.8087 7.56338 17.8087 11.0354C17.8087 12.8568 17.036 14.496 15.7981 15.645C14.677 16.6858 13.1783 17.3207 11.5294 17.3207C8.06218 17.3207 5.2501 14.5074 5.2501 11.0354Z" fill="#CECECE"/>
</svg>
