<svg width="24" height="24" viewBox="0 0 24 24" fill="none" xmlns="http://www.w3.org/2000/svg">
<path fill-rule="evenodd" clip-rule="evenodd" d="M12.4286 3.14282C12.4286 3.14282 16.0714 5.17196 18.9643 5.49235C19.2756 5.5544 19.5 5.83057 19.5 6.15158V14.3565C19.5 17.3468 17.0357 19.8031 12.2143 21.939C12.0769 22.0075 11.9185 22.0188 11.7731 21.9704L11.6786 21.939C6.85714 19.5895 4.5 17.0264 4.5 14.3565V6.14276C4.5 5.78355 4.78782 5.49235 5.14286 5.49235C7.17857 5.49235 9.42857 4.74477 11.5714 3.14282C11.8261 2.95239 12.1739 2.95239 12.4286 3.14282ZM16.4999 9.23588C16.8095 9.54551 16.8095 10.0475 16.4999 10.3572L11.357 15.5C11.0474 15.8096 10.5454 15.8096 10.2358 15.5L7.66435 12.9286C7.35472 12.619 7.35472 12.1169 7.66435 11.8073C7.97398 11.4977 8.47599 11.4977 8.78562 11.8073L10.7964 13.8181L15.3786 9.23588C15.6883 8.92625 16.1903 8.92625 16.4999 9.23588Z" fill="#00BE90"/>
</svg>
  