<svg width="20" height="20" viewBox="0 0 20 20" fill="none" xmlns="http://www.w3.org/2000/svg">
<path d="M10.5473 2.00629C10.4444 1.7983 10.2323 1.66666 10 1.66666C9.76774 1.66666 9.5556 1.7983 9.45271 2.00629L7.07957 6.80338L1.77228 7.57741C1.54233 7.61094 1.35138 7.77199 1.27975 7.99281C1.20811 8.21363 1.26821 8.45592 1.43477 8.61779L5.2742 12.3491L4.36812 17.6204C4.3288 17.8491 4.42289 18.0803 4.61084 18.2168C4.79878 18.3532 5.04799 18.3713 5.25368 18.2634L10 15.7728L14.7463 18.2634C14.952 18.3713 15.2012 18.3532 15.3892 18.2168C15.5771 18.0803 15.6712 17.8491 15.6319 17.6204L14.7258 12.3491L18.5652 8.61779C18.7318 8.45592 18.7919 8.21363 18.7203 7.99281C18.6486 7.77199 18.4577 7.61094 18.2277 7.57741L12.9204 6.80338L10.5473 2.00629Z" fill="#FFB31F"/>
</svg>
