<svg width="24" height="24" viewBox="0 0 24 24" fill="none" xmlns="http://www.w3.org/2000/svg">
<path d="M10.2 10.35C10.6142 10.35 10.95 10.6858 10.95 11.1V16.5C10.95 16.9142 10.6142 17.25 10.2 17.25C9.78581 17.25 9.45002 16.9142 9.45002 16.5V11.1C9.45002 10.6858 9.78581 10.35 10.2 10.35Z" fill="#022DB0"/>
<path d="M13.8 10.35C14.2142 10.35 14.55 10.6858 14.55 11.1V16.5C14.55 16.9142 14.2142 17.25 13.8 17.25C13.3858 17.25 13.05 16.9142 13.05 16.5V11.1C13.05 10.6858 13.3858 10.35 13.8 10.35Z" fill="#022DB0"/>
<path fill-rule="evenodd" clip-rule="evenodd" d="M16.35 6.6C16.35 6.68284 16.4172 6.75 16.5 6.75H20.1C20.5142 6.75 20.85 7.08579 20.85 7.5C20.85 7.91421 20.5142 8.25 20.1 8.25H19.138C19.0593 8.25 18.994 8.31082 18.9884 8.38931L18.2078 19.3176C18.1461 20.181 17.4277 20.85 16.562 20.85H7.43803C6.57238 20.85 5.8539 20.181 5.79222 19.3176L5.01164 8.38931C5.00603 8.31082 4.94071 8.25 4.86202 8.25H3.90002C3.48581 8.25 3.15002 7.91421 3.15002 7.5C3.15002 7.08579 3.48581 6.75 3.90002 6.75L5.69398 6.74999L7.50002 6.75C7.58287 6.75 7.65002 6.68284 7.65002 6.6V4.8C7.65002 3.88873 8.38875 3.15 9.30002 3.15H14.7C15.6113 3.15 16.35 3.88873 16.35 4.8V6.6ZM14.7 6.75C14.7829 6.75 14.85 6.68284 14.85 6.6V4.8C14.85 4.71716 14.7829 4.65 14.7 4.65H9.30002C9.21718 4.65 9.15002 4.71716 9.15002 4.8V6.6C9.15002 6.68284 9.21718 6.75 9.30002 6.75H14.7ZM7.28841 19.2107C7.29402 19.2892 7.35934 19.35 7.43803 19.35H16.562C16.6407 19.35 16.706 19.2892 16.7116 19.2107L17.4831 8.41069C17.486 8.36915 17.4716 8.32826 17.4432 8.29778C17.4149 8.26731 17.3751 8.25 17.3334 8.25H6.6666C6.62496 8.25 6.5852 8.26731 6.55682 8.29778C6.52845 8.32826 6.51402 8.36915 6.51698 8.41069L7.28841 19.2107Z" fill="#022DB0"/>
</svg>
