<svg width="25" height="24" viewBox="0 0 25 24" xmlns="http://www.w3.org/2000/svg" fill="currentColor"><path d="M3.5 18.336c0 .707.28 1.384.777 1.884.498.5 1.172.78 1.876.78h12.694c.704 0 1.378-.28 1.876-.78a2.67 2.67 0 0 0 .777-1.884v-3.642a.841.841 0 0 0-.84-.843.841.841 0 0 0-.839.843v3.642a.98.98 0 0 1-.974.978H6.153a.972.972 0 0 1-.974-.978v-3.642a.841.841 0 0 0-.84-.843.841.841 0 0 0-.839.843v3.642Z"/><path d="M7.713 8.8a.845.845 0 0 0 0 1.191c.328.33.86.33 1.187 0L12 6.878v8.892a.841.841 0 1 0 1.68 0V6.878l3.1 3.113c.328.33.86.33 1.187 0a.845.845 0 0 0 0-1.192l-4.533-4.552a.837.837 0 0 0-1.187 0L7.713 8.799Z"/></svg>